# xmcd CD database file
#
# Track frame offsets:
#	150
#	28954
#	55120
#	70851
#	97305
#	125865
#	146706
#	165364
#	184080
#	207605
#
# Disc length: 3146 seconds
#
# Revision: 0
# Processed by: cddbd v1.5.1PL0 Copyright (c) Steve Scherf et al.
# Submitted via: CDex 1.51
#
DISCID=9e0c480a
DTITLE=Henry Texier - The scene is clean
DYEAR=1996
DGENRE=Jazz
TTITLE0=Stolen Moments
TTITLE1=Scene Is Clean
TTITLE2=Arrival
TTITLE3=Skating in Central Park
TTITLE4=Soul Eyes
TTITLE5=Lotus Blossom
TTITLE6=Lonely Woman
TTITLE7=Minority
TTITLE8=Stablemates
TTITLE9=Lament
EXTD=YEAR: 1996
EXTT0=
EXTT1=
EXTT2=
EXTT3=
EXTT4=
EXTT5=
EXTT6=
EXTT7=
EXTT8=
EXTT9=
PLAYORDER=
